<?xml version="1.0" encoding="utf-8"?>
<!-- Generator: Adobe Illustrator 21.1.0, SVG Export Plug-In . SVG Version: 6.00 Build 0)  -->
<svg version="1.1" id="Calque_1" xmlns="http://www.w3.org/2000/svg" xmlns:xlink="http://www.w3.org/1999/xlink" x="0px" y="0px"
	 viewBox="0 0 432 432" style="enable-background:new 0 0 432 432;" xml:space="preserve">
<style type="text/css">
	.st0{fill:#C61622;}
	.st1{fill:#EAA35C;}
	.st2{fill:#EBC1C4;}
	.st3{fill:#E52629;}
	.st4{fill:#F2F2F2;}
	.st5{fill:#020203;}
	.st6{fill:#E39BA2;}
	.st7{fill:#009245;}
	.st8{fill:#047637;}
	.st9{fill:#FFFFFF;}
	.st10{fill:#E7E6E6;}
	.st11{fill:#8C633A;}
	.st12{fill:#F4DBC6;}
	.st13{fill:#754D24;}
	.st14{fill:#A3282E;}
	.st15{fill:#AF4650;}
	.st16{fill:#921D25;}
	.st17{fill:#AB3743;}
	.st18{fill:#014837;}
	.st19{fill:#821721;}
	.st20{fill:#C67B3E;}
	.st21{fill:#CDCCCC;}
	.st22{fill:#48AE4D;}
	.st23{fill:#412413;}
	.st24{fill:#9A9999;}
	.st25{fill:#82171C;}
	.st26{fill:#A67D52;}
	.st27{fill:#B4B4B4;}
	.st28{fill:#DC7B18;}
	.st29{fill:#AD7E53;}
	.st30{fill:#BE1622;}
</style>
<g>
	<g>
		<path class="st22" d="M114.6,334.8c-0.7-0.4-1.2-0.6-1.7-0.9c-0.4-0.2-0.7-0.4-1.1-0.6c-1.5-0.7-2.9-0.4-3.9,0.9
			c-0.8,1.1-1.5,2.3-2.3,3.5c-0.3,0.4-0.6,0.9-1,1.4c-0.5-0.6-0.9-1.1-1.3-1.7c-0.6-0.9-1.1-1.8-1.8-2.7c-0.4-0.5-0.9-1-1.4-1.4
			c-1.3-0.8-2.7-0.5-3.4,0.8c-0.6,0.9-1.1,1.9-1.6,2.9c-1.4,2.5-2.8,5-4.6,7.3c-0.4,0.5-0.8,1-1.4,1.6c-0.2-0.7-0.3-1.2-0.4-1.7
			c-0.2-0.5-0.3-1.1-0.5-1.6c-0.7-1.4-2.4-1.6-3.3-0.3c-0.7,0.9-1.3,1.8-1.9,2.7c-2,3.2-4.3,6.1-6.7,9c-2.3,2.7-5,5-7.9,7.1
			c-0.6,0.4-1.1,0.8-2,0.9c5.7-11.8,9.5-24.1,10.2-37.2c0,0,0.2,0,0.2,0.1c1,0.7,2,0.7,3,0.2c1-0.5,1.8-1.4,2.4-2.4
			c0.3-0.4,0.5-0.9,0.9-1.3c0.2,0.7,0.3,1.4,0.3,2.1c0,2.2-0.4,4.4-0.8,6.6c-0.1,0.7-0.3,1.4-0.4,2.1c-0.1,0.8,0,1.6,0.7,2.1
			c0.7,0.5,1.6,0.5,2.3,0c1.1-0.6,1.9-1.5,2.7-2.5c2-2.4,3.5-5.2,4.4-8.2c0.8-2.7,1.5-5.4,2.3-8.1c0.1-0.4,0.2-0.8,0.4-1.5
			c0.3,0.4,0.5,0.6,0.7,0.9c0.5,0.7,0.9,1.5,1.4,2.2c0.4,0.6,0.9,1.2,1.4,1.7c1.4,1.3,3,1,4.1-0.5c0.9-1.3,1.4-2.8,1.7-4.3
			c0.1-0.5,0.2-0.9,0.3-1.4c0.3,0.2,0.6,0.3,0.9,0.4c1.5,0.7,3,1.2,4.7,1.5c1.8,0.3,3-0.5,3.2-2.4c0.1-1.2-0.1-2.4-0.2-3.6
			c0-0.4-0.1-0.7-0.1-1.2c0.4,0.1,0.7,0.2,1,0.2c1.9,0.5,3.7,0.9,5.7,0.6c0.4-0.1,0.8-0.1,1.2-0.2c1.1-0.4,1.6-1.3,1.3-2.5
			c-0.1-0.2-0.1-0.4-0.2-0.7c0.5-0.2,0.8-0.2,1.1,0.3c0.5,1.1,1.3,1.9,2.3,2.6c0.2,0.2,0.4,0.4,0.6,0.6c-0.2,0.3-0.4,0.5-0.6,0.7
			c-1.9,1.9-2.9,4.3-2.9,6.9c0,3.6,1.3,6.6,4.8,8.2c0.1,0.1,0.3,0.1,0.5,0.2c-0.6,0.6-1.3,1.1-1.8,1.7c-0.5,0.6-1,1.3-1.5,2
			c-1.4,0-2.8-0.2-4.2-0.5c-0.7-0.2-1.5-0.3-2.2-0.4c-1.4-0.1-2.2,0.6-2.5,1.9c-0.3,1.2-0.4,2.4-0.6,3.5
			C114.8,333.4,114.7,334,114.6,334.8z"/>
		<path class="st8" d="M65.3,327.3c0.2-0.5,0.3-0.9,0.5-1.4c1-2.8,2.1-5.5,3-8.4c1.1-3.4,1.9-6.9,2.3-10.5c0.3-2.7,0.5-5.5-0.2-8.2
			c-0.2-0.8,0.4-1,0.8-1.4c0.2,0.3,0.3,0.5,0.4,0.7c0.3,0.5,0.6,1.1,1,1.6c0.9,1,2.3,1.2,3.4,0.4c0.6-0.4,1.1-0.9,1.5-1.4
			c0.6-0.9,1.2-1.8,1.7-2.7c0.4-0.6,0.8-1,1.6-0.9c1.7,0.1,3-0.7,3.8-2.2c0.4-0.9,0.8-1.8,1.3-2.6c0.1-0.3,0.3-0.6,0.5-1
			c0.4,0.4,0.8,0.7,1.2,1c1.3,1.1,2.5,2.2,3.8,3.3c1,0.9,2,1.7,3.1,2.5c0.7,0.6,1.5,1.1,2.3,1.5c0.4,0.2,0.9,0.4,1.3,0.4
			c1.4,0.1,2.3-0.9,2.1-2.3c-0.1-0.8-0.4-1.6-0.7-2.4c-0.7-1.8-1.5-3.5-2.2-5.2c-0.1-0.3-0.2-0.6-0.4-1c0.3,0.1,0.5,0.2,0.8,0.2
			c0.5,0.1,0.9,0.3,1.4,0.4c1.2,0.2,2.2-0.4,2.6-1.5c0.2-0.4,0.3-0.8,0.4-1.3c0.3,0.3,0.5,0.5,0.6,0.8c1,1.3,2,2.7,3,4
			c0.9,1.2,2,2.3,3.2,3.2c3.4,2.6,7.2,4.6,11.2,5.9c0.7,0.2,1.3,0.4,2,0.6c-0.1,0.9-0.2,1.8-0.2,2.8c-0.6-0.2-1.2-0.4-1.7-0.5
			c-0.5-0.1-1-0.4-1.4-0.4c-1.3-0.1-2,1.1-1.4,2.2c0.3,0.6,0.7,1.1,1.1,1.7c0.1,0.1,0.1,0.2,0.2,0.5c-0.6-0.1-1.1-0.1-1.6-0.2
			c-1.5-0.4-2.9-0.8-4.4-1.2c-0.3-0.1-0.5-0.2-0.8-0.2c-1.3-0.2-2.4,0.6-2.4,1.9c0,1.3,0.2,2.6,0.3,3.9c0,0.5,0.1,1,0.1,1.6
			c-0.4-0.1-0.7-0.1-1-0.3c-1.2-0.5-2.4-1.1-3.5-1.6c-0.5-0.2-1-0.5-1.5-0.5c-1.1-0.2-2,0.4-2.3,1.5c-0.2,0.6-0.2,1.2-0.4,1.9
			c-0.2,0.8-0.3,1.7-0.5,2.5c-0.1,0.4-0.3,0.7-0.4,1.2c-0.2-0.3-0.4-0.5-0.5-0.6c-0.5-0.8-1-1.7-1.6-2.5c-0.6-0.8-1.3-1.5-2.2-1.9
			c-1.5-0.8-3-0.3-3.7,1.3c-0.3,0.7-0.5,1.4-0.7,2.2c-0.9,3-1.7,6.1-2.7,9.1c-0.5,1.5-1.2,2.8-1.9,4.2c-0.1,0.3-0.3,0.5-0.6,0.9
			c0.1-1.3,0.3-2.3,0.4-3.4c0.2-1.7,0-3.5-0.5-5.2c-0.3-1.2-1-2-2.2-2.2c-1.2-0.2-2.2,0.1-3,1c-0.5,0.6-1,1.3-1.4,2
			c-0.3,0.4-0.5,0.8-0.9,1.3c-0.1-0.5-0.2-0.8-0.3-1c-0.2-0.6-0.4-1.1-0.7-1.6c-0.7-1-2-1.2-3-0.4c-0.4,0.4-0.8,0.8-1.2,1.2
			c-2,2.3-4.3,4.2-6.7,6.2c-0.5,0.4-1.1,0.8-1.7,1.2C65.4,327.4,65.4,327.4,65.3,327.3z"/>
		<path class="st22" d="M69.2,273.8c0.2,0.4,0.4,0.7,0.6,1.1c0.3,0.6,0.8,1.1,1.4,1.5c1.4,0.8,3,0.6,4-0.7c0.6-0.7,1-1.5,1.4-2.3
			c0.3-0.7,0.6-1.4,0.9-2.1c0.4-0.7,0.5-0.8,1.3-0.4c0.5,0.2,0.9,0.5,1.3,0.7c0.8,0.4,1.5,0.8,2.3,1.1c2.2,0.9,4.8-0.4,5.3-2.7
			c0.4-1.6,0.3-1.7,2.2-1.7c0.4,0,0.8,0,1.3-0.1c0.9,1.9,2.2,3.5,3.4,5.2c2.4,3.3,5.6,5.4,9.6,6.4c2,0.5,3.9,1.3,5.9,2
			c0.2,0.1,0.3,0.2,0.6,0.3c-1.8,0.5-3.4,0.6-5,0.1c-0.5-0.2-1.1-0.4-1.6-0.6c-0.3-0.1-0.7-0.2-1-0.3c-1.8-0.5-3.1,0.4-3.5,2.2
			c-0.1,0.3-0.1,0.7-0.2,1c0,0,0,0-0.1,0.2c-0.4-0.2-0.9-0.4-1.4-0.6c-0.6-0.2-1.3-0.5-2-0.6c-1.3-0.1-2.2,0.9-2,2.2
			c0.1,0.7,0.3,1.4,0.6,2.1c0.6,1.6,1.3,3.1,1.9,4.6c0.2,0.4,0.3,0.7,0.4,1.2c-0.2-0.1-0.4-0.2-0.5-0.4c-2.1-1.8-4.2-3.7-6.4-5.5
			c-0.5-0.5-1.2-0.9-1.8-1.2c-1.3-0.6-2.5-0.3-3.2,0.9c-0.4,0.6-0.7,1.3-1.1,2c-0.3,0.6-0.6,1.3-0.9,2c-0.3,0.8-0.9,1.1-1.7,1.1
			c-0.2,0-0.4,0-0.6,0c-1.1,0-2,0.5-2.6,1.4c-0.6,0.8-1.1,1.6-1.6,2.4c-0.3,0.4-0.6,0.8-1,1.3c-0.2-0.5-0.4-0.9-0.6-1.2
			c-0.3-0.5-0.5-1-0.8-1.4c-0.7-0.9-1.8-1.1-2.8-0.5c-0.4,0.2-0.8,0.6-1.1,0.9c-1.7,1.5-3.3,3-4.9,4.6c-0.3,0.3-0.7,0.6-1.2,1.1
			c0-0.4,0-0.7,0.1-0.9c0.4-1.4,0.8-2.7,1.3-4c1.4-3.9,2.2-8,2.6-12.1c0.2-2.6,0.2-5.2-0.4-7.7c0-0.2,0-0.4,0.1-0.5
			C67.8,275.1,68.3,274.3,69.2,273.8z"/>
		<path class="st8" d="M62,277.5c0.3-0.9,0.7-1.9-0.3-2.7c-1-0.8-2-0.2-3.1,0.3c0.2-0.2,0.2-0.3,0.3-0.4c0.1-0.1,0.1-0.1,0.2-0.2
			c0.6-0.5,1.2-1.1,1.9-1.6c3.1-2.4,4.8-5.6,5.6-9.4c0.6-2.8,0.9-5.7,1-8.6c0.1-1.8,0.4-3.6,0.5-5.5c0.1-1.8,0.2-3.5,0.4-5.3
			c0-0.2,0-0.5,0.1-0.9c0.2,0.3,0.4,0.4,0.5,0.6c0.7,1.1,1.4,2.1,2.1,3.2c1.6,2.6,3.4,5,5.4,7.3c4.1,4.6,9.1,7.8,15.2,9.3
			c1.1,0.3,2.1,0.6,3.2,0.9c0.1,0,0.2,0.1,0.5,0.2c-1.5,0.7-3,1.3-4.6,1.4c-0.7,0.1-1.4,0.1-2.2,0.1c-1.9,0.1-2.9,1-3.3,2.8
			c-0.1,0.6-0.3,1.1-0.9,1.5c-0.4,0.3-0.8,0.4-1.2,0.1c-0.8-0.4-1.6-0.9-2.4-1.3c-0.6-0.3-1.2-0.7-1.9-0.9c-1.3-0.4-2.4,0-3.3,1.1
			c-0.4,0.5-0.7,1.1-1,1.7c-0.3,0.7-0.6,1.3-0.9,2c-0.1,0.3-0.3,0.6-0.5,0.9c-0.4,0.5-0.8,0.5-1.2,0c-0.1-0.2-0.2-0.4-0.3-0.6
			c-0.2-0.3-0.3-0.6-0.5-0.8c-1-1.6-2.5-1.9-4-0.7c-0.9,0.7-1.6,1.7-2.4,2.5c-0.7,0.8-1.4,1.7-2,2.5c-0.2,0.3-0.6,0.5-0.8,0.7
			C62.1,277.6,62,277.6,62,277.5z"/>
		<path class="st23" d="M115,343.6c-1.9,1-3.8,2.1-5.8,2.8c-0.7-1.6-1.4-3.2-2.1-4.8c1.1-1.8,2.2-3.5,3.2-5.3c0.6,0,0.7,0.4,0.9,0.7
			c0.8,1.4,1.5,2.8,2.3,4.1C114,341.9,114.5,342.7,115,343.6z"/>
	</g>
	<g>
		<path class="st16" d="M371.1,271.9c-0.6,1-1.2,2-1.6,3c-2,4.4-4,8.8-5.6,13.4c-0.1,0.2-0.2,0.4-0.2,0.6c-7-2.3-13.9-4.6-20.9-7
			c2.2-5.8,3.7-11.8,5.5-17.8C355.9,266.9,363.4,269.8,371.1,271.9z"/>
		<path class="st24" d="M351,288c1.1,0.4,2.1,0.8,3.1,1.2c0,0.1,0.1,0.2,0.1,0.3c-1.1,3.4-2.1,6.7-3.2,10.1
			c-2.1,6.6-4.3,13.3-6.5,19.9c-1.5,4.6-3.2,9.1-4.6,13.7c-1.7,5.2-3.3,10.5-4.9,15.7c-0.2,0.7-0.5,1.5-0.8,2.3
			c-0.8-0.6-1.5-1.2-2.3-1.8c0.6-1.8,1.1-3.6,1.7-5.4c3-9.6,5.9-19.3,9.1-28.8c2.2-6.5,4.2-13.1,6.4-19.6c0.7-2,1.2-4.1,1.7-6.2
			C350.7,288.8,350.8,288.5,351,288z"/>
		<path class="st25" d="M373.3,273.8c0.1,0.9,0.1,1.8-0.1,2.7c-0.4,1.8-0.7,3.7-1.2,5.5c-0.7,2.7-1.5,5.3-2.3,8
			c-0.1,0.5-0.3,0.9-0.5,1.5c-1.3-0.4-2.6-0.8-3.8-1.3C366,288.1,372.4,274.6,373.3,273.8z"/>
		<path class="st16" d="M370.6,294.8c0.7,2.2,1.3,4.5,0.9,7.1c-0.3-0.3-0.5-0.4-0.7-0.6c-1.8-2.3-3.3-4.7-4.6-7.2c0,0,0-0.1,0-0.2
			C367.7,294.1,369.1,294.4,370.6,294.8z"/>
	</g>
	<g>
		<path class="st26" d="M299.6,327.9c-1.6,2.8-2.3,5.6-1.6,8.9c-0.5-0.1-0.8-0.1-1.2-0.2c-2.5-0.8-5-0.9-7.6-0.7
			c-2.7,0.2-5.4,0.1-8-0.4c-2.2-0.4-4.5-0.2-6.7,0c-3.4,0.4-6.7,1.4-9.9,2.3c-1.8,0.5-3.7,0.9-5.6,1.1c-1.4,0.1-2.8,0-4.1-0.5
			c-2.1-0.7-4.2-1-6.3-0.9c-2.5,0.1-4.7,0.8-6.5,2.5c-0.1,0.1-0.3,0.2-0.4,0.4c-0.9,1-1.9,1.3-3.1,0.8c-1.3-0.5-2.6-0.9-3.9-1.4
			c-5.6-2.5-11.5-3.4-17.6-3.1c-1.8,0.1-3.5,0.4-5.2,0.8c-2.8,0.6-5.6,0.6-8.5,0.2c-1.8-0.2-3.7-0.4-5.6-0.5
			c-2.9-0.1-5.6,0.6-8.4,1.2c-2.2,0.5-4.4,1-6.6,1.5c-3.4,0.7-6.7,0.3-9.8-0.9c-2.2-0.9-4.5-1.8-6.8-2.3c-3.7-0.8-7.4-1-11.1-0.5
			c-2.8,0.4-5.6,1-8.4,1.4c-1.5,0.2-2.9,0.4-4.4,0.5c-0.6,0.1-1.3,0.1-2.2,0.2c2.1-2.8,2.3-5.6,1.1-8.7c0.4,0,0.8,0,1.1,0
			c3.2,0.1,6.5,0.1,9.7,0.2c3.1,0,6.2,0.1,9.4,0.1c3.9-0.1,7.9-0.3,11.8-0.4c1.7-0.1,3.4-0.1,5.1-0.1c5.9-0.1,11.9-0.1,17.8-0.2
			c6.9-0.1,13.8-0.1,20.7-0.2c9.7-0.1,19.3-0.1,29-0.1c6.2,0,12.4-0.1,18.6-0.2c5.4-0.1,10.8-0.1,16.2-0.2c3.8-0.1,7.6-0.2,11.4-0.3
			c2.4-0.1,4.8-0.1,7.2-0.2C299.3,327.8,299.4,327.8,299.6,327.9z"/>
		<path class="st26" d="M264,208.2c0.4,3.3,0.7,6.5,1.1,9.7c-1.1,0-2.1,0.1-3.1,0.1c-12.2,0.4-24.5,0.2-36.7,0.1
			c-5.5,0-11-0.1-16.6-0.2c-4.4-0.1-8.9-0.3-13.3-0.5c-5.5-0.2-11-0.3-16.5-0.5c-2.4-0.1-4.8-0.1-7.2-0.1c-2.2,0-4.3,0.2-6.6,0.3
			c-0.2-3.8,1.6-7.1,3-10.6c1.8,0.1,3.6,0.2,5.4,0.2c4,0.1,8,0.2,12,0.3c6.5,0.1,13,0.2,19.5,0.4c8.4,0.4,16.8,0.5,25.2,0.5
			c8.8,0.1,17.6,0.2,26.4,0.3c2,0,4-0.1,6.1-0.1C263.1,208.2,263.4,208.2,264,208.2z"/>
		<path class="st26" d="M203.3,232.1c-12.9-0.2-25.9-0.1-39,0.4c0-4.4,0.3-8.8,0.6-13.2c0.6,0,1.1,0,1.6,0
			c6.6,0.2,13.1,0.5,19.7,0.7c3.7,0.1,7.3,0.4,11,0.5c3.3,0.2,6.6,0.3,9.9,0.4c7.3,0.1,14.6,0.2,21.9,0.2c6.8,0.1,13.5,0.1,20.3,0.1
			c3.8,0,7.6-0.1,11.4-0.2c1.2,0,2.3-0.1,3.5-0.2c0.4,0,0.7,0,1.1,0c0.2,0.6,0.9,10.4,0.8,11.6c-0.1,0-0.3,0.1-0.4,0.1
			c-5.1,0-10.2,0-15.2,0c-0.9,0-1.9,0.1-2.8,0.2c-0.3,0-0.6-0.1-0.8-0.3c-1.2-1-2.5-2-3.7-3.1c-0.9-0.7-1.9-1.1-3-1
			c-0.7,0-1.3,0-2,0.1c-0.6,0.1-1.1-0.1-1.6-0.4c-0.2-0.1-0.5-0.3-0.7-0.4c-1.3-1-2.8-1.2-4.4-0.9c-1.2,0.2-2.5,0.5-3.7,0.7
			c-0.6,0.1-1.1,0.1-1.7,0.1c-1.6,0-2.7-0.7-3.6-2.2c-1.5-2.6-4.9-3-7.2-1.1c-0.6,0.5-1.2,1-1.8,1.6c-0.9,0.8-1.9,1.3-3.1,1.6
			c-1.6,0.3-3.1,1-4.3,2.1C204.9,230.4,204.2,231.3,203.3,232.1z"/>
		<path class="st26" d="M310.9,264.2c-1.2,1.6-2,3.2-2.4,5c-0.3,1.3-0.5,2.6-0.3,3.9c0.2,1.9,1.1,3.3,2.6,4.3
			c0.3,0.2,0.5,0.4,0.9,0.6c-0.3,0-0.4,0.1-0.6,0.1c-4.5,0-9,0.1-13.5,0.1c-5.4,0-10.8-0.1-16.3-0.2c-4.4-0.1-8.8-0.4-13.1-0.4
			c-5.8-0.1-11.6-0.1-17.4-0.1c-0.9,0-1.9,0-2.8,0c0-5,0-10,0-15.1c0.3,0,0.5-0.1,0.7,0c3.9,0.2,7.8,0.5,11.7,0.7
			c5.3,0.3,10.6,0.6,16,0.8c10.7,0.5,21.3,0.3,32,0.2C309,264.2,309.9,264.2,310.9,264.2z"/>
		<path class="st26" d="M200.2,294.8c0,0.3,0,0.5,0.1,0.7c0.1,1.6,1,2.7,2.5,3.3c0.2,0.1,0.4,0.1,0.6,0.2c0.4,0.1,0.6,0.3,0.7,0.7
			c0.7,2,1.1,4,1.5,6.1c-1.1,0.1-2.1,0.1-3.2,0.2c-4.2,0.1-8.4,0.3-12.6,0.4c-4.3,0.1-8.6,0.2-12.9,0.4c-3.9,0.2-7.8,0.5-11.7,0.7
			c-6.4,0.3-12.9,0.6-19.3,0.4c-2.6-0.1-5.2,0-7.8,0.1c-0.6,0-1.1,0.1-1.8,0.2c0.5-0.4,0.8-0.7,1.1-1c1.9-1.7,2.4-3.8,2-6.3
			c-0.3-2.1-1.2-4-2.6-5.6c-0.1-0.1-0.2-0.2-0.3-0.4c0,0,0-0.1,0-0.2c0.2,0,0.4,0,0.6,0c4.3-0.1,8.5-0.1,12.8-0.2
			c2-0.1,4-0.4,5.9-0.4c3.9-0.1,7.9-0.2,11.8-0.1c4.6,0.1,9.2,0.4,13.8,0.5c5.2,0.2,10.4,0.2,15.6,0.3c0.7,0,1.3,0,2,0
			C199.6,294.8,199.9,294.8,200.2,294.8z"/>
		<path class="st26" d="M135.2,276.9c2.1-1.9,3-4.1,3-6.7c0-2.6-0.9-4.8-2.7-6.9c1.4,0.2,2.5,0.3,3.7,0.4c4.7,0.6,9.4,1.1,14.2,1.5
			c6.5,0.5,12.9,0.5,19.4,0.6c5.9,0.1,11.7,0.2,17.6,0.3c3.3,0.1,6.7,0.1,10,0.1c0.7,0,1.3-0.1,2-0.1c0,3.9,0,7.8,0,11.8
			c-0.3,0-0.5,0.1-0.8,0.1c-3.7-0.1-7.3-0.2-11-0.3c-2.8-0.1-5.7-0.2-8.5-0.2c-4.5-0.1-9-0.1-13.4-0.1c-6.1,0-12.1,0-18.2-0.1
			c-2.6,0-5.2-0.3-7.7-0.3c-2.3-0.1-4.6,0-6.9,0C135.8,276.9,135.6,276.9,135.2,276.9z"/>
		<path class="st26" d="M252.2,179.5c0.2,0.8,0.4,1.6,0.6,2.4c0.2,0.9,0.5,1.8,0.8,2.6c0.7,1.6,1.8,2.1,3.4,1.6c0,0,0.1,0,0.1,0
			c1.5-0.5,1.6-0.4,2.1,1.1c0.3,1,0.6,2.1,1,3.2c-0.2,0.1-0.3,0.1-0.4,0.1c-6.1,0-12.2,0-18.3,0c-9.5-0.1-18.9-0.1-28.4-0.2
			c-7.3-0.1-14.7-0.4-22-0.5c-3.3,0-6.6,0.1-9.8,0.2c-0.1,0-0.3,0-0.6,0c0.3-0.7,0.8-1.3,1.2-1.7c1.1-1.1,2.3-1.8,3.7-2.4
			c1.4-0.6,2.9-1.2,4.3-1.9c2-0.9,3.8-2.2,5.2-3.8c0.3-0.4,0.7-0.5,1.1-0.5c3.5,0.1,6.9,0.2,10.4,0.3c6.7,0.1,13.3,0.3,20,0.1
			c5.5-0.2,11-0.2,16.6-0.3c2.3,0,4.6-0.1,6.9-0.1C250.8,179.5,251.5,179.5,252.2,179.5z"/>
		<path class="st26" d="M308.3,296.2c-2.4,2.4-3.1,5.3-2.7,8.6c-11.4-0.3-22.7-0.3-34,0c-11.3,0.3-22.6,0.1-33.9,0.8
			c-0.1-0.1-0.1-0.1-0.1-0.2c0.3-1.8,0.8-3.4,1.7-5c0.4-0.7,1-1.1,1.9-1c1,0.1,2.1,0.2,3.1,0.3c2.1,0.2,3.8-0.6,5-2.3
			c0.7-0.9,1-1.9,0.7-3.1C269.4,295.5,288.9,295.6,308.3,296.2z"/>
		<path class="st26" d="M266.1,234.9c0.3,2,0.7,3.8,1,5.7c0.1,0.3,0.1,0.6,0.2,0.9c0.3,0.7,0.8,1.1,1.4,1.1c0.6,0,1.1-0.4,1.2-1.2
			c0.2-0.9,0.2-1.7,0.3-2.6c0.1-1.1,0.2-2.3,0.3-3.4c0-0.2,0.1-0.4,0.1-0.6c13.8,0.7,27.7,0.7,41.6,0.4c0.1,0.7,0.3,1.4,0.4,2.2
			c0.1,0.5,0.1,0.9,0.2,1.4c0,0.3,0,0.6-0.1,0.9c-0.6,1.7-0.7,2.3-0.5,4.3c-21.4-0.8-42.9-0.2-64.4,0.5c0-0.4,0-0.8,0-1.2
			c0-0.6,0-1.2,0-1.8c0-0.7,0-1.3,0.5-1.8c0.5-0.5,0.5-1.3,0.4-2c-0.2-1-0.4-1.9-0.6-3C254.1,234.8,260.1,235.1,266.1,234.9z"/>
		<path class="st26" d="M202.6,244.7c-13.2,0.1-26.3-0.4-39.4,0.3c0.4-3.5,0.8-7,1.2-10.5c12.6,0.1,25.2,0.2,38,0.3
			c0.3,0.2,0.3,0.7,0.3,1.2c0,1-0.1,2.1-0.1,3.1c0,1.5,0,3-0.1,4.5C202.6,243.9,202.6,244.3,202.6,244.7z"/>
		<path class="st13" d="M140.5,327.7c-0.9-1-1.7-1.9-2.6-2.9c0,0,0-0.1,0.1-0.2c2.6-2,3.4-4.7,3.3-7.9c-0.1-2.2-0.9-4.1-2.1-5.9
			c-0.2-0.3-0.3-0.5-0.6-0.9c1.1,0.1,2,0.1,2.9,0.2c4.6,0.4,9.2,0.5,13.8,0.4c4.3-0.1,8.7-0.4,13-0.5c2.5-0.1,5-0.2,7.5-0.3
			c6.5-0.2,13.1-0.4,19.6-0.6c4.2-0.2,8.4-0.4,12.6-0.6c2-0.1,4.1-0.1,6.1-0.2c2.4-0.1,4.7-0.1,7.1-0.2c0.4,0,0.8,0,1.3,0
			c0.7,5.9,1.3,11.7,2,17.6c-0.2,0-0.5,0.1-0.8,0.1c-10.4,0.1-20.9,0.2-31.3,0.3c-4.8,0.1-9.7,0.2-14.5,0.3c-4.7,0.2-9.3,0.5-14,0.7
			c-4,0.1-8,0-12,0.1c-3.4,0.1-6.9,0.2-10.3,0.4C141.2,327.6,140.8,327.7,140.5,327.7z"/>
		<path class="st13" d="M303.1,324.8c-0.2,0.1-0.4,0.2-0.7,0.2c-3.8,0.1-7.7,0.2-11.5,0.2c-7.2,0.1-14.4,0.3-21.7,0.3
			c-10.3,0.1-20.5,0.2-30.8,0.3c-3.2,0-6.5,0-9.7,0.1c-0.4,0-0.7,0-1.2,0c0.3-6.2,0.6-12.3,0.9-18.4c0.9,0.1,1.7,0.1,2.6,0.2
			c0.2,0.9,0.5,1.8,0.7,2.7c0.3,1.3,0.6,2.6,1,3.9c0.1,0.5,0.4,1.1,0.6,1.6c0.3,0.6,0.8,0.9,1.5,0.8c0.6-0.1,1-0.5,1.2-1.1
			c0.1-0.6,0.2-1.2,0.3-1.8c0.3-2,0.5-3.9,0.8-5.9c0.2,0,0.4-0.1,0.5-0.1c2.9,0,5.7,0,8.6,0c7.8,0,15.6,0,23.5,0
			c9.8,0,19.6-0.1,29.4-0.1c2.4,0,4.9,0,7.3,0.1c0.3,0,0.6,0.1,0.8,0.3c0.4,0.3,0.7,0.7,1.1,1.2c-0.2,0.1-0.4,0.4-0.7,0.5
			c-3.2,1.9-5.1,4.8-5.8,8.5c-0.4,2.2-0.1,4.3,1.3,6.2c0.1,0.1,0.1,0.2,0.1,0.3C303.2,324.6,303.2,324.6,303.1,324.8z"/>
		<path class="st13" d="M134.3,261c2.3-1.4,3.6-3.4,4.2-5.9c0.7-2.5,0.1-4.9-1-7.3c0.3,0,0.5,0,0.7,0c5.6,0.1,11.2,0.2,16.8,0.2
			c3.1,0,6.2-0.3,9.4-0.3c4.4-0.1,8.8-0.1,13.2-0.2c7.7-0.1,15.3-0.1,23-0.1c0.6,0,1.3,0,1.9,0c0.2,0.8,0.2,15.4,0,16.5
			c-1.3-0.1-2.6-0.1-4-0.2c-2-0.1-4.1-0.1-6.1-0.2c-7.2-0.2-14.3-0.3-21.5-0.5c-4.4-0.1-8.9-0.1-13.3-0.3c-4.9-0.2-9.8-0.7-14.6-1
			c-2.7-0.2-5.4-0.3-8-0.4c-0.1,0-0.2,0-0.4,0C134.4,261.1,134.3,261,134.3,261z"/>
		<path class="st13" d="M179.6,192.2c0.9,0,1.7,0,2.5,0c2.7,0.1,5.4,0.1,8.1,0.3c4,0.2,8.1,0.5,12.1,0.7c3.4,0.2,6.7,0.4,10.1,0.4
			c6.3,0.1,12.6,0.3,18.9,0.3c7.4,0,14.8-0.1,22.1-0.2c2.5,0,4.9-0.2,7.5-0.3c1,3.8,1.8,7.7,2.3,11.6c-0.2,0-0.5,0.1-0.7,0.1
			c-5.8-0.1-11.5-0.2-17.3-0.3c-7.1-0.1-14.1-0.2-21.2-0.4c-5.8-0.1-11.5-0.4-17.3-0.4c-5.3-0.1-10.6-0.1-15.9-0.1
			c-4.8,0-9.5,0.1-14.3,0.2c-2.2,0-4.3,0.2-6.5,0.3c-0.3,0-0.6,0-0.9,0c0.3-1,1.4-1.9,2.4-1.8c1.7,0.1,3-0.6,3.9-1.9
			c0.5-0.7,1-1.5,1.3-2.3c0.8-1.8,1.6-3.6,2.4-5.4C179.4,192.7,179.5,192.4,179.6,192.2z"/>
		<path class="st13" d="M314.9,248.2c-1.9,1.3-3.2,2.9-3.9,5c-0.7,2.1-1,4.2-0.1,6.4c0.3,0.6,0.7,1.2,1.1,1.9c-0.8,0-1.5,0-2.2,0
			c-2.3,0-4.7-0.1-7-0.1c-7.3,0-14.6,0-21.9-0.1c-5-0.1-10-0.3-14.9-0.5c-5.2-0.2-10.4-0.3-15.6-0.5c-0.8,0-1.6,0-2.4,0
			c-0.2-0.7-0.2-12.7,0-13.9c0.7,0,1.4,0.1,2.1,0.1c4.4,0,8.9,0.1,13.3,0.1c3.5,0,7,0,10.5,0c8.8,0,17.7-0.1,26.5-0.1
			c3.4,0,6.9,0.1,10.3,0.3c0.9,0,1.8,0.4,2.6,0.7C313.9,247.8,314.3,248,314.9,248.2z"/>
		<path class="st13" d="M309.5,281.1c-2.2,3.9-3.4,7.9-0.8,12.1c-1.1,0-2.2,0-3.2,0c-2.8-0.1-5.7-0.2-8.5-0.3
			c-10.2-0.1-20.3-0.2-30.5-0.3c-5-0.1-10-0.2-14.9-0.2c-0.8,0-1.6,0.1-2.3,0.1c-0.5-0.7-1.1-1.3-1.6-2c-0.1-0.2-0.2-0.4-0.2-0.6
			c0-3.4,0.1-6.8,0.1-10.1c0-0.1,0-0.2,0.1-0.3c0.2,0,0.5,0,0.7,0c3.6,0.2,7.2,0.4,10.8,0.5c3.5,0.2,7.1,0.3,10.6,0.4
			c3.3,0.1,6.6,0.4,9.9,0.5c7.2,0.2,14.4,0.3,21.6,0.4c2.6,0,5.1-0.1,7.7-0.2C309.1,281.1,309.3,281.1,309.5,281.1z"/>
		<path class="st13" d="M135.8,292.6c3.2-4.6,3.1-9,0-13.5c0.7,0,1.4,0,2.1,0c2.6,0.2,5.3,0.5,7.9,0.7c2.5,0.2,5,0.4,7.5,0.4
			c7.2,0.1,14.3,0.1,21.5,0.2c6.7,0.1,13.4,0.2,20.1,0.3c2.1,0,4.2,0,6.3,0c0.4,0,0.7,0.1,1.2,0.1c0,0.3,0.1,0.6,0,0.8
			c0,2.4-0.1,4.9-0.1,7.3c0,0.1,0,0.2,0,0.3c0.3,1.2-0.3,2-1.1,2.6c-2.9-0.1-5.6-0.1-8.4-0.2c-4.6-0.2-9.3-0.4-13.9-0.5
			c-3.5-0.1-7.1-0.3-10.6-0.3c-3.5,0-7,0-10.5,0.1c-2.2,0.1-4.5,0.4-6.7,0.6c-2.1,0.2-4.2,0.4-6.3,0.5c-2.8,0.2-5.5,0.4-8.3,0.5
			C136.4,292.6,136.1,292.6,135.8,292.6z"/>
		<path class="st13" d="M270.8,232.8c0.1-4.1,0.1-8.1,0.2-12.1c0.9-0.4,9.6-0.7,11.2-0.5c0.1,1.4,0.1,2.9,0.2,4.3
			c0,0.5,0.1,0.9,0.1,1.4c0.1,0.7,0.6,1.1,1.3,1.2c0.7,0,1.2-0.3,1.4-1.1c0.2-0.9,0.4-1.9,0.6-2.9c0.1-0.8,0.3-1.6,0.4-2.5
			c0.3,0,0.5,0,0.7,0c3-0.1,6-0.2,9.1-0.4c1.7-0.1,3.3-0.1,5-0.2c0.5,0,0.9,0.1,1.2,0.5c0.5,0.7,1.1,1.4,1.6,2.1
			c0.5,0.7,0.8,1.4,1.3,2.1c1.1,1.6,2.5,2.3,4.4,1.7c0.2-0.1,0.4-0.1,0.8-0.1c0.6,2,1,4,1.7,6c-1.4,0.1-2.6,0.2-3.9,0.2
			c-10.5,0.1-20.9,0.1-31.4,0.1c-1.7,0-3.4,0.1-5.1,0.1C271.2,232.8,271,232.8,270.8,232.8z"/>
		<path class="st13" d="M234.7,166.3c0.5,1.4,0.8,2.8,1,4.2c0.1,0.5,0.1,1,0.2,1.5c0.2,0.8,0.7,1.2,1.3,1.3c0.6,0,1.2-0.3,1.4-1.1
			c0.4-1.2,0.7-2.4,1-3.5c0.2-0.8,0.5-1.7,0.8-2.7c0.5,0.7,0.9,1.3,1.2,1.8c1.3,2.4,3.3,4.2,5.8,5.4c1.2,0.6,2.2,1.5,3.1,2.4
			c0.2,0.2,0.4,0.6,0.6,0.9c-0.3,0-0.5,0.1-0.6,0.1c-6.3-0.3-12.6-0.2-18.8,0c-7.3,0.2-14.5,0.3-21.8,0.3c-3.8,0-7.6,0.2-11.3,0.3
			c-0.3,0-0.7,0-1.1,0c0.6-0.9,1.3-1.6,2-2.3c1.3-1.2,2.6-2.5,3.9-3.7c1.5-1.5,2.7-3.1,3.7-5c0.2-0.4,0.5-0.6,1-0.6
			c4.5,0.2,9,0.3,13.5,0.4c3.5,0.1,7.1,0.1,10.6,0.2C233.1,166.3,233.9,166.3,234.7,166.3z"/>
		<path class="st13" d="M128.7,245.1c2.8,0,4.9,1.1,6.2,3.5c1.5,2.7,1.6,5.5-0.2,8.2c-0.9,1.3-2,2.2-3.6,2.4
			c-1.3,0.2-2.6,0.4-3.9,0.3c-1.1-0.1-2.2-0.6-3.3-0.9c-0.1,0-0.2-0.2-0.3-0.3c-1.9-2.5-2.5-5.2-1.7-8.2c0.1-0.3,0.3-0.6,0.4-1
			c0.3,0.3,0.4,0.5,0.6,0.7c0.8,0.9,1.9,1.1,3,0.4c0.7-0.5,1.2-1.1,1.5-1.9c0.2-0.5,0.4-1,0.6-1.5
			C128.3,246.2,128.5,245.7,128.7,245.1z"/>
		<path class="st13" d="M125.2,317.2c0-3,1.1-5.1,3.2-6.7c1.5-1.1,4.1-1.3,5.8,0.1c2.1,1.8,3.5,3.9,3.6,6.7c0,3.1-0.5,3.7-3.1,4.7
			c-1.2,0.5-2.5,0.7-3.9,0.9c-2,0.3-4.5-1.3-5.2-3.4C125.5,318.6,125.3,317.7,125.2,317.2z"/>
		<path class="st13" d="M310,324.2c-0.4,0-0.9,0-1.3,0c-1.8,0.1-3.2-0.6-3.9-2.3c-0.3-0.7-0.5-1.4-0.5-2.1c-0.1-3,1.1-5.4,3.3-7.4
			c0.8-0.7,1.7-1.2,2.7-1.5c0.8-0.3,1.6-0.2,2.3,0.2c2.4,1.3,4.8,4.6,3.4,8.3c-0.3,0.9-0.7,1.8-1.3,2.5
			C313.5,323.3,312.2,324.6,310,324.2z"/>
		<path class="st13" d="M128.1,291.8c-1,0.4-1.8-0.4-2.6-1.2c-2.8-2.8-2.4-6.5-0.9-8.9c1-1.6,2.5-2.3,4.3-2.4c0.3,0,0.5,0,0.8,0
			c0.8-0.2,1.5,0.1,2.1,0.5c3.1,2.2,4.1,7.2,1.4,10.6c-0.7,0.8-1.6,1-2.6,1.2C129.9,291.8,129.1,291.8,128.1,291.8z"/>
		<path class="st13" d="M314.6,280.8c4.2,0.1,6.1,3.7,5.7,6.7c-0.2,1.7-0.9,3.2-2.2,4.4c-1.6,1.5-3.3,1.7-5.3,1.1
			c-1.9-0.6-2.7-2-3.1-3.7c-0.3-1.3-0.1-2.6,0.3-3.9c0.2-0.8,0.5-1.5,0.9-2.2C311.6,281.5,312.9,280.8,314.6,280.8z"/>
		<path class="st13" d="M323.6,254.6c0.1,2.4-1,4.3-2.9,5.8c-0.7,0.6-1.6,0.9-2.5,0.8c-0.9-0.1-1.9-0.3-2.8-0.6
			c-1.8-0.6-2.8-2.2-2.8-4.1c0-2,0.6-3.8,1.9-5.4c0.3-0.4,0.8-0.7,1.3-0.9c1.5-0.5,3.1-0.5,4.7-0.2c1.6,0.3,2.9,1.8,3.1,3.5
			C323.6,253.9,323.6,254.3,323.6,254.6z"/>
		<path class="st13" d="M149.3,232.7c-3.5,0.1-7,0.1-10.5,0.2c0-0.1,0-0.2,0.1-0.3c1-1.2,1.7-2.6,2.2-4.1c0.6-1.6,1.1-3.2,1.7-4.8
			c0.8-2.2,1.9-4.2,3.8-5.8c0.2-0.1,0.3-0.3,0.6-0.5c0.1,0.4,0.3,0.7,0.3,1c0.4,2.3,0.8,4.5,1.1,6.8
			C148.9,227.7,149.1,230.2,149.3,232.7z"/>
		<path class="st13" d="M272.1,206.2c0.2-2.1,0.3-4.2,0.5-6.4c0.2,0.3,0.4,0.4,0.5,0.6c0.8,1.2,1.9,1.9,3.3,2.1
			c0.6,0.1,1.2,0.2,1.8,0.3c0.5,0.1,0.8,0.3,0.9,0.7c0.3,0.7,0.5,1.4,0.7,2.3C277.2,205.9,274.7,206.1,272.1,206.2z"/>
		<path class="st13" d="M156.8,232.9c-1.2,0-2.3,0-3.6,0c1.2-4.5,0.8-9,1.8-13.5C155.2,220.1,156.8,231.4,156.8,232.9z"/>
		<path class="st26" d="M129.3,243.2c0.1-0.4,0.2-0.7,0.3-1c0.3-0.7,0.6-1.4,0.8-2.1c0.7-2,1.9-3.3,3.9-3.9c0.7-0.2,1.4-0.7,2-1.2
			c0.4-0.2,0.7-0.4,1.1-0.4c4.1,0.1,8.3,0.1,12.4,0.2c2.1,0.1,4.2,0.1,6.3,0.2c0.3,0,0.7,0,1.1,0.1c0.8,3.3,1.2,6.7,2.5,10
			c-0.3,0-0.5,0.1-0.7,0.1c-4.1,0.1-8.3,0.2-12.4,0.3c-3.3,0.1-6.6,0.3-9.9,0.4c-0.5,0-0.7-0.1-1-0.4c-1.4-1.4-3-2.1-5-2.2
			C130.3,243.2,129.8,243.2,129.3,243.2z"/>
		<path class="st26" d="M233.9,163.3c-8.5-0.2-16.8-0.2-25.2,0.2c0.1-0.3,0.1-0.5,0.2-0.7c0.3-0.7,0.7-1.4,1-2c1-1.9,2.5-3.2,4.5-4
			c1.1-0.4,2.2-1.1,3.3-1.6c0.3-0.1,0.6-0.2,0.9-0.2c3.5,0,7,0,10.5,0.1c0.4,0,0.8,0.1,1.1,0.4c0.2,0.2,0.5,0.4,0.8,0.5
			c0.5,0.3,0.8,0.7,1,1.2C232.6,159.2,233.2,161.2,233.9,163.3z"/>
		<path class="st26" d="M313.5,331c-0.2,1.2-0.3,2.4-0.6,3.5c-0.5,1.9-1.7,3.2-3.6,3.9c-1.4,0.5-2.8,0.8-4.2,0.2
			c-0.4-0.1-0.8-0.2-1.2-0.3c-2.2-0.4-3.3-1.6-3.5-3.8c-0.2-2.4,0.6-4.5,1.9-6.5c0.3-0.4,0.7-0.7,1.2-0.9c1.4-0.4,2.7-0.7,4.2-0.3
			c1.1,0.3,2.2,0.3,3.3,0.2c0.6,0,1,0.1,1.4,0.5C313.1,328.6,313.4,329.7,313.5,331z"/>
		<path class="st26" d="M131.3,339.2c-1.5,0-2.7-0.4-3.6-1.7c-0.3-0.5-0.7-0.9-0.9-1.5c-0.5-1.4-1.2-2.7-1-4.3
			c0.1-1.1,0.5-2,1.2-2.8c0.8-0.9,1.6-1.7,2.7-2.2c2.1-1.2,4.4-0.9,6.2,0.6c1.7,1.5,2.7,3.3,2.8,5.6c0.1,2.5-1.4,4.2-3.5,5.3
			C134,338.9,132.6,339.1,131.3,339.2z"/>
		<path class="st26" d="M134.7,271.1c0.1,3.2-4.7,5.8-7.6,4.7c-1-0.4-2-0.6-2.9-1.1c-0.5-0.2-1-0.7-1.3-1.2c-0.8-1.3-1-2.7-0.7-4.2
			c0.6-3.1,2.9-5.3,6-5.9c1.2-0.2,2.3,0.1,3.3,0.8C133.6,265.7,134.6,267.8,134.7,271.1z"/>
		<path class="st26" d="M130,307.5c-3.4-0.3-5.7-3.1-5.2-6.5c0.3-1.8,0.9-3.3,2.4-4.5c2.5-2,5.8-1.6,7.7,1c1,1.4,1.6,2.9,1.7,4.6
			c0.1,1-0.3,1.9-1,2.7c-0.9,1-2.1,1.7-3.4,2.2C131.5,307.3,130.7,307.4,130,307.5z"/>
		<path class="st26" d="M310.7,271.6c0-1.9,0.5-3.6,1.4-5.2c0.8-1.5,2.1-2,3.7-2c0.8,0,1.6,0.1,2.4,0.2c0.8,0.1,1.6,0.4,2.3,0.9
			c0.9,0.6,1.4,1.5,1.4,2.6c0.1,1.9-0.3,3.8-1.3,5.4c-0.2,0.4-0.5,0.7-0.8,1.1c-2.3,2.6-4.9,2.6-7.7,0.7c-1-0.7-1.4-1.6-1.4-2.7
			C310.6,272.2,310.7,271.9,310.7,271.6z"/>
		<path class="st26" d="M313.3,296.6c1,0.2,2,0.2,3,0.5c1.7,0.5,2.8,2.2,2.8,3.9c0,1.9-0.7,3.5-2.1,4.8c-1.1,1-2.2,1.8-3.8,1.9
			c-1.5,0.1-2.8-0.3-3.9-1.4c-1.3-1.3-1.6-2.9-1.4-4.7c0.1-0.5,0.2-1,0.3-1.5c0.5-1.8,1.9-2.8,3.5-3.4c0.4-0.2,1,0,1.5,0
			C313.3,296.8,313.3,296.7,313.3,296.6z"/>
		<path class="st26" d="M280.4,208.4c0.5,3.1,0.9,6.1,1.3,9.2c-3.5,0.4-7,0.7-10.6,0.6c0.1-3.3,0.5-6.5,0.8-9.8
			C274.7,208.4,277.5,208.4,280.4,208.4z"/>
		<path class="st26" d="M314.3,241.6c1,0.1,1.6-0.5,2.1-1.2c1-1.3,2.1-2.7,3.2-4c0.4-0.5,1-1,1.5-1.5c0.6,0.3,0.8,0.8,0.9,1.3
			c0.7,1.9,1.2,3.8,1.5,5.8c0.1,0.6,0.1,1.2,0.3,1.8c0.1,0.4,0,0.7-0.3,1c-1.5,2.1-4.8,3.1-7.2,1
			C314.5,244.4,314.1,243.5,314.3,241.6z"/>
		<path class="st26" d="M220.5,299.5c1.2,1.8,1.4,3.8,1.8,5.9c-4.5,0.1-8.9,0.2-13.3,0.3c-0.1-0.1-0.1-0.2-0.1-0.2
			c0.2-1.7,0.5-3.5,0.8-5.2c0.2-0.9,0.4-1,1.2-0.8c1,0.3,1.9,0.4,2.9,0.1c0.5-0.1,0.9,0,1.1,0.5c0.1,0.1,0.1,0.2,0.2,0.3
			c1.1,1.6,2.9,1.7,4.3,0.4C219.7,300.4,220,300,220.5,299.5z"/>
		<path class="st26" d="M288.2,209.2c1,3.4,2.4,6.6,5.3,8.9c-2.3,0-4.5,0-6.9,0C287.2,215.1,287.7,212.2,288.2,209.2z"/>
		<path class="st26" d="M223.4,147.7c1.1,0.6,1.9,1.2,2.2,2.6c0.1,0.8,0.6,1.6,0.9,2.6c-1.9,0-3.9,0-5.7,0
			C221.6,151.2,222.5,149.5,223.4,147.7z"/>
		<path class="st26" d="M228.9,301.6c0.7,1.4,1.2,2.8,1.6,4.4c-0.7,0-1.3,0-1.9,0c0-1.4,0-2.9,0-4.3
			C228.7,301.6,228.8,301.6,228.9,301.6z"/>
	</g>
	<g>
		<path class="st13" d="M294.2,162.9c-0.2-0.2-0.3-0.5-0.5-0.7c-2.6-2.7-5.4-5.1-8.7-6.9c-3.1-1.7-5.7-4.1-7.8-6.9
			c-1.3-1.8-2.7-3.5-3.9-5.3c-0.4-0.6-0.4-1.5-0.4-2.3c0-2.7,0-5.4,0-8c0-3.6-0.1-7.2-0.2-10.8c0-0.2,0-0.4,0-0.6c7.3,0,14.6,0,22,0
			c-0.1,13.8-0.2,27.6-0.3,41.4C294.3,162.8,294.2,162.8,294.2,162.9z"/>
		<path class="st26" d="M299.8,111.6c0,2.4,0,4.6,0,6.8c-11,0.2-22,0.3-33,0.5c-0.1-2.3-0.2-4.6-0.3-7
			C277.6,112.2,288.7,112.5,299.8,111.6z"/>
		<path class="st27" d="M293.6,104c-4-0.7-8-0.5-12-0.7c-1.4-0.1-2.8,0-4.1,0.6c-0.4,0.2-0.8,0.2-1.3,0.3c-0.2-0.3-0.4-0.6-0.6-0.9
			c-1-1.9-1.4-4-1.9-6.1c-0.4-1.4-0.7-2.9-1.4-4.2c-0.8-1.5-1.9-2.5-3.4-3.1c-1.4-0.6-2.9-1-4.4-1.5c-2-0.7-3.7-1.7-4.7-3.7
			c-0.6-1.3-1.2-2.6-1.8-3.9c-0.5-1.1-1-2.3-1.7-3.4c-1.3-2.2-3.3-3.6-5.6-4.6c-2.2-1-4.6-1.5-7-1.9c-3.1-0.4-6.1-0.7-9.2-1.2
			c-3.8-0.6-7.5-1.5-11.2-2.6c-0.2-0.1-0.5-0.2-0.7-0.4c0.1,0,0.3,0,0.4,0c3.3,0.5,6.5,0.1,9.8-0.5c2.7-0.5,5.3-1,8-1.3
			c1.5-0.2,3.1-0.2,4.6-0.1c3.1,0.1,6.2,0.7,9.1,1.9c3.3,1.3,5.7,3.5,7.5,6.5c0.7,1.1,1.3,2.3,1.9,3.5c2.1,4.3,5.6,6.7,10.1,7.7
			c1.5,0.4,3.1,0.6,4.6,1c3.4,0.7,6,2.6,7.8,5.7c0.7,1.3,1.3,2.6,1.9,3.9c1.2,3.1,2.8,5.9,4.9,8.5
			C293.4,103.6,293.4,103.8,293.6,104z"/>
	</g>
	<path class="st10" d="M337.9,250c-0.2-0.4-0.4-0.7-0.5-1c-0.5-1.1-1-2.2-1.6-3.3c-0.3-0.5-0.6-1-1-1.4c-0.9-0.9-2.1-0.7-2.7,0.3
		c-0.3,0.6-0.6,1.2-0.7,1.8c-0.4,2.3-0.8,4.6-1.1,6.9c-0.8,4.6-1.5,9.2-2.3,13.8c0,0.1-0.1,0.3-0.3,0.4c0-0.2-0.1-0.3-0.1-0.5
		c-0.1-5.1-0.3-10.2-0.4-15.3c-0.1-4.2-0.3-8.3-1.3-12.4c-0.3-1.3-0.7-2.6-1.2-3.8c-0.3-0.7-0.6-1.4-1.1-2c-1-1.3-2.5-1.6-3.9-0.7
		c-0.5,0.3-1,0.8-1.4,1.2c-0.7,0.8-1.4,1.6-2.1,2.5c-0.2,0.2-0.4,0.5-0.7,0.8c-0.1-0.4-0.1-0.6-0.2-0.8c-0.3-1.7-0.6-3.3-1-5
		c-0.4-1.6-0.9-3.2-1.4-4.8c-0.1-0.2-0.1-0.4-0.2-0.6c-0.6-1.6-1.3-2.2-3-2.1c-0.1,0-0.3,0-0.4,0c-1.2,0.5-1.9-0.2-2.4-1.2
		c-0.3-0.6-0.6-1.1-0.9-1.6c-0.9-1.6-2.2-2.9-3.7-4c-0.8-0.6-1.7-0.9-2.7-0.8c-0.9,0-1.7,0-2.6,0c-0.9,0-1.6-0.4-2.3-0.9
		c-1.5-1.3-2.5-2.9-3.1-4.8c-0.3-0.8-0.5-1.6-0.8-2.3c-0.3-0.8-0.7-1.6-1.2-2.2c-1.1-1.4-2.8-1.1-3.4,0.5c-0.3,0.8-0.5,1.6-0.6,2.5
		c-0.4,2.2-0.8,4.3-1.3,6.5c-0.1-0.8-0.2-1.6-0.4-2.3c-0.5-3-1-5.9-1.5-8.9c-0.1-0.8-0.5-1.6-0.8-2.3c-0.5-1-1.3-1.5-2.3-1.8
		c-0.8-0.2-1.5-0.3-2.3-0.5c-0.6-0.1-1.1-0.4-1.5-1c-0.3-0.5-0.6-1-0.9-1.5c-0.2-0.4-0.4-0.7-0.6-1.1c-0.4-0.6-0.9-0.9-1.7-0.9
		c-0.7,0.1-1.2,0.5-1.4,1.2c-0.3,0.9-0.5,1.8-0.6,2.8c-0.3,2.3-0.5,4.6-0.7,7c-0.3,2.9-0.6,5.8-0.8,8.8c-0.2,2.7-0.3,5.4-0.4,8.1
		c0,0.2,0,0.4-0.1,0.6c-0.1-1.3-0.1-2.5-0.2-3.8c-0.2-2.7-0.4-5.3-0.8-8c-0.8-6.4-1.9-12.9-3.5-19.2c-0.5-2.2-1.2-4.3-1.9-6.4
		c-0.2-0.7-0.6-1.4-1-2c-0.8-1.1-1.9-1.5-3.3-1.2c-0.5,0.1-0.9,0.3-1.5,0.4c-0.2-0.5-0.4-0.9-0.5-1.4c-0.4-1.5-0.8-3.1-1.1-4.6
		c-0.7-3.2-2.8-5.3-5.6-6.8c-2.1-1.1-3.9-2.6-5.1-4.7c-0.4-0.7-0.9-1.4-1.5-2c-1.3-1.4-3-1.1-3.8,0.7c-0.3,0.6-0.5,1.2-0.8,2
		c-0.2-0.5-0.3-0.8-0.4-1.1c-0.9-2.9-1.8-5.8-2.6-8.7c-0.4-1.4-1.1-2.5-2.3-3.2c-0.9-0.6-1.8-1.3-2.7-1.8c-0.9-0.5-1.4-1.3-1.5-2.3
		c0,0,0-0.1,0-0.1c-0.3-2.2-1.8-3.3-3.7-4.1c-0.2-0.1-0.4-0.1-0.5-0.2c-0.8-0.3-1.2-0.2-1.7,0.6c-0.4,0.6-0.7,1.3-0.9,2
		c-1.4,3.4-3.8,5.8-7.3,6.9c-3.1,1-5.2,3.2-6.7,6c-0.3,0.5-0.5,1-0.8,1.5c-1.5,3.4-3.7,6.2-6.4,8.7c-0.5,0.4-0.9,0.9-1.4,1.2
		c-1.4,1.1-2.7,2.3-3.7,3.8c-2.2,3-5,5-8.4,6.3c-0.8,0.3-1.5,0.6-2.3,1c-3.2,1.4-5.6,3.6-6.9,6.8c-0.8,1.9-1.6,3.9-2.5,5.8
		c-0.4,1-0.9,1.9-1.4,2.9c-0.4,0.8-1,1.3-2.1,1.1c-0.9-0.1-1.7,0.2-2.4,0.7c-1.6,1.2-2.8,2.7-3.4,4.6c-0.4,1.4-0.9,2.7-1.6,4.1
		c-1,2.1-1.5,4.4-1.6,6.8c-0.3,4.1-0.4,8.2-0.6,12.3c-0.1,2.5-0.1,4.9-0.2,7.4c-0.1,1.4-0.2,2.9-0.5,4.4c-0.1-0.3-0.2-0.6-0.2-0.8
		c-1.1-5.2-2-10.4-2.5-15.7c-0.2-1.6-0.4-3.1-0.7-4.7c-0.2-0.8-0.4-1.5-0.8-2.2c-1-1.6-2.7-1.5-3.5,0.2c-0.4,0.8-0.6,1.7-0.8,2.5
		c-0.3,2.4-0.5,4.8-0.8,7.1c0,0.2,0,0.4-0.2,0.7c0-0.2-0.1-0.4-0.1-0.6c-0.2-3.1-0.5-6.1-1.4-9.1c-0.1-0.3-0.2-0.7-0.3-1
		c-0.8-1.9-2.3-2.4-4-1.2c-1.2,0.9-2.3,2-3.2,3.2c-0.8,1.2-1.5,2.4-2,3.7c-0.7,1.9-1.4,3.8-2.1,5.8c-0.6,1.7-1.7,3.2-3.1,4.4
		c-0.7,0.7-1.5,1.2-2.5,1.5c-2.2,0.7-3.8,2.2-4.6,4.4c-0.7,1.9-1.4,3.9-2.1,5.8c-0.4,1.1-0.8,2.2-1.1,3.3c-0.1,0-0.1,0-0.2,0
		c-0.1-0.2-0.3-0.4-0.4-0.7c-0.4-1.1-0.7-2.1-1.2-3.2c-0.2-0.5-0.4-1-0.8-1.4c-0.8-1-2.2-1-2.9,0.1c-0.4,0.6-0.7,1.3-0.8,2
		c-0.6,2.8-1.1,5.6-1.5,8.4c-0.5,3.5-0.8,7-1.2,10.4c0,0.4-0.1,0.8-0.3,1.2c-0.3-1.3-0.5-2.6-0.8-3.9c-0.3-1.4-0.7-2.8-1.1-4.2
		c-0.1-0.5-0.4-0.9-0.6-1.4c-0.8-1.3-1.9-1.6-3.2-0.9c-0.5,0.3-1.1,0.5-1.6,0.8c-0.7,0.4-1.4,0.3-2.2-0.1c-0.8-0.5-1.7-0.9-2.5-1.4
		c-1.7-0.9-3.5-1.3-5.4-1.3c-0.7,0-1.4,0-2.1,0c-1.6,0-2.5-0.8-2.9-2.2c-0.3-0.9-0.5-1.8-0.5-2.8c-0.5-4.9,0.6-9.5,2.6-13.9
		c0.5-1.2,1.3-2.2,2-3.3c1.9-2.9,3.9-5.7,5.7-8.7c2-3.2,4.5-6,7.6-8.1c3.7-2.4,6.9-5.4,9.7-8.8c1.7-2,3.4-4.1,5.2-6
		c1.2-1.3,2.5-2.6,3.9-3.8c3.9-3.1,7-6.8,9.6-11c1.6-2.7,3.4-5.3,5.2-7.9c2.4-3.5,5.6-6.3,9.4-8.3c4.7-2.6,8.8-5.9,12.2-10.1
		c1.2-1.5,2.4-3.2,3.4-4.9c2.6-4.2,5.7-7.9,9.4-11.1c0.2-0.2,0.4-0.3,0.6-0.5c4.3-3.5,8-7.6,11.5-12c1.2-1.5,2.5-2.8,3.8-4.1
		c1.7-1.7,3.6-3.1,5.8-4.2c4.5-2.2,9-4.3,13.7-6c0.3-0.1,0.7-0.2,1-0.3c1.3-0.5,2.6-0.4,3.9,0c1.9,0.6,3.8,1,5.7,1.5
		c1,0.2,2,0.3,3,0.3c2.9,0.1,5.6,1,8.3,2.2c6.5,2.8,12.3,6.6,17,12c2.5,2.9,5.3,5.4,8.6,7.4c2,1.3,4,2.7,6,4
		c1.7,1.1,3.1,2.5,4.2,4.2c0.9,1.3,1.8,2.6,2.8,3.8c2.6,3.4,5.7,6.2,9.4,8.3c4.3,2.5,7.8,5.9,10.7,10c1.1,1.5,1.9,3.1,2.6,4.8
		c1.4,3.8,3.9,6.7,7.5,8.7c2.8,1.6,5.5,3.2,8.2,4.8c4.7,2.8,8.7,6.5,11.8,11c2.2,3.3,5,5.9,8.4,7.9c1.9,1.1,3.7,2.4,5.5,3.6
		c1.7,1.1,3.1,2.5,4.3,4.1c2.2,3,4.4,5.9,6.6,8.9c0.8,1,1.4,2.2,2,3.3c1.2,2.4,0.9,4.8,0.2,7.2c-0.3,1-0.7,1.9-1.2,2.7
		c-0.6,1.1-1.6,1.8-2.8,2.2c-0.4,0.2-0.8,0.3-1.2,0.5c-3.2,1.2-5.2,3.5-6.2,6.7c-0.4,1.1-0.6,2.2-1,3.3
		C338.8,248.5,338.5,249.2,337.9,250z"/>
	<path class="st10" d="M337.3,364.2c-4.3,0-8.6-0.1-12.9,0c-6.3,0.1-12.5,0.4-18.8,0.5c-4.2,0.1-8.4,0.1-12.6-0.1
		c-9.3-0.4-18.7-0.4-28-0.4c-6.3,0-12.6-0.1-18.9-0.2c-6.7-0.2-13.4-0.4-20.2-0.3c-4.3,0.1-8.6,0.2-13,0.3
		c-10,0.1-19.9,0.2-29.9,0.2c-5.8,0-11.5,0.2-17.3,0.6c-5.2,0.4-10.4,0.8-15.7,1.1c-5.5,0.4-11,0.7-16.4,1
		c-4.9,0.3-9.8,0.5-14.8,0.3c-4.2-0.2-8.3-0.4-12.5-0.6c-2.8-0.2-5.7-0.4-8.5-0.6c-1.3-0.1-2.6-0.4-3.8-0.6c-1-0.2-1.7-0.8-2.2-1.7
		c-0.4-0.9-0.7-1.9-0.7-2.9c0-1.2,0.6-2.2,1.2-3.1c1.1-1.5,2.4-2.8,3.9-4c0.5-0.4,1-0.8,1.4-1.3c0.5-0.5,1.1-0.9,1.7-1.3
		c1.4-1,3.1-1.1,4.7-1.2c2.9-0.2,5.8-0.7,8.4-2c1.9-0.9,3.8-1.9,5.7-2.8c2.7-1.3,5.4-2.4,8.3-3.2c0.6-0.2,1.1-0.1,1.7,0
		c0.9,0.3,1.8,0.4,2.8,0.5c0.3,0,0.6,0,0.8,0.1c1.4,0.3,2.8,0.1,4.2-0.3c2.9-0.9,5.9-1.3,8.9-1.6c2.3-0.2,4.5-0.8,6.8-1.2
		c5-1,10-1.1,14.9,0.3c1.5,0.4,3,1,4.4,1.6c3,1.2,6.1,1.9,9.3,1.7c2.3-0.1,4.6-0.6,6.8-1.1c2.5-0.6,5-1.1,7.5-1.6
		c2.5-0.5,5-0.3,7.4,0.1c3.8,0.6,7.5,0.6,11.3-0.3c3.8-0.9,7.6-0.8,11.4-0.3c3,0.5,6,1.3,8.8,2.6c1.6,0.8,3.3,1.3,5.1,1.7
		c1.9,0.4,3.4,0,4.8-1.3c0,0,0.1-0.1,0.1-0.1c1.7-1.9,3.9-2.5,6.3-2.4c1.1,0.1,2.2,0.2,3.2,0.6c3.4,1.2,6.7,1.1,10.2,0.3
		c2.9-0.7,5.7-1.6,8.6-2.2c3.2-0.8,6.5-1.1,9.8-0.5c2.1,0.4,4.3,0.5,6.4,0.3c0.9-0.1,1.8-0.1,2.6-0.1c3.1-0.1,6.1,0.7,9,1.7
		c1.9,0.7,3.9,1.1,5.9,1.6c0.5,0.1,1.1,0.2,1.6,0.3c1.7,0.5,3.4,0.6,5.1,0.7c0.8,0.1,1.6,0.1,2.4,0.2c1.2,0.1,2.3,0.6,3.4,1.2
		c3.3,1.9,6.6,3.9,9.9,5.8c2.2,1.3,4.2,2.9,6.1,4.7c1.5,1.5,3.3,2.8,5.2,3.8c0.4,0.2,0.9,0.4,1.2,0.8c0.5,0.4,0.9,0.9,1.2,1.4
		c0.8,1.4,0.2,2.7-1.3,3.3C339.3,364.3,338.3,364.4,337.3,364.2z"/>
	<g>
		<path class="st10" d="M234,309.4c-0.7-2.1-1.2-4-1.9-5.9c-0.5-1.5-1.2-2.9-2-4.2c-0.3-0.4-0.6-0.8-0.9-1.1
			c-0.8-0.7-1.9-0.5-2.3,0.5c-0.3,0.7-0.4,1.5-0.4,2.2c-0.1,1.5-0.2,3-0.3,4.5c-0.2,2.6-0.3,5.2-0.5,7.7c0,0.8-0.1,1.6-0.2,2.4
			c-0.1-1.5-0.2-3-0.4-4.5c-0.4-3.4-0.5-6.9-1.5-10.2c-0.3-0.9-0.7-1.8-1.2-2.6c-1.1-1.7-2.7-1.7-4-0.1c-0.2,0.3-0.4,0.6-0.7,0.9
			c-0.4,0.4-0.7,0.4-0.9,0c-1-1.6-2.4-1.9-4.1-1.5c-0.3,0.1-0.7-0.1-1-0.1c-0.6-0.1-1.1-0.2-1.7-0.2c-1.1-0.1-1.9,0.5-2.3,1.5
			c-0.3,0.8-0.5,1.6-0.7,2.4c-0.1-0.2-0.2-0.4-0.3-0.6c-0.2-0.6-0.4-1.2-0.6-1.8c-0.3-0.9-0.9-1.5-1.9-1.7c-0.6-0.2-1.1-0.5-1.5-0.9
			c-0.6-0.7-0.7-1.4-0.4-2.2c0.5-1.5,1.5-2.6,3-3.2c0.8-0.3,1.6-0.6,2.3-0.7c0.9,0,1.8,0.1,2.6,0.4c1.5,0.5,3,0.7,4.6,0.7
			c1.8,0,3.7,0,5.5,0c1.3,0,2.6-0.2,4-0.3c1.3-0.1,2.5-0.1,3.7,0.3c2.1,0.7,4.1,0.6,6.1,0.1c0.6-0.2,1.3-0.3,2-0.3
			c0.7,0,1.3,0,2,0.2c1,0.2,2,0.5,3,0.7c1.2,0.3,2.4,0.3,3.7,0c1.6-0.3,2.8,0.6,3.1,2.2c0.2,1.1-0.1,1.9-1.1,2.5
			c-0.9,0.5-1.9,0.8-3,0.6c-1-0.1-2-0.2-3-0.2c-1.5-0.1-2.7,0.6-3.5,1.8c-0.9,1.2-1.5,2.6-1.8,4c-0.4,1.9-0.8,3.8-1.2,5.7
			C234.1,308.9,234.1,309.1,234,309.4z"/>
		<path class="st10" d="M223.7,240.1c-0.3-0.6-0.6-1.3-0.9-1.9c-0.3-0.5-0.5-1-0.9-1.4c-0.6-0.7-1.4-1-2.3-0.7c0,0-0.1,0-0.1,0
			c-1.6,0.9-3.4,0.6-5.1,0.4c-0.5-0.1-0.9-0.1-1.4-0.2c-1.9-0.4-3.6-0.1-5.3,0.7c-0.5,0.2-0.9,0.4-1.4,0.5c-1,0.2-1.7-0.3-1.8-1.3
			c0-0.4,0-0.8,0.1-1.1c0.5-2.8,2.4-4.2,4.8-5c0.4-0.1,0.7-0.2,1.1-0.3c1.9-0.3,3.5-1.3,4.8-2.6c0.4-0.4,0.8-0.8,1.2-1.1
			c1.3-1,2.7-0.7,3.5,0.7c0,0.1,0.1,0.1,0.1,0.2c1.1,2.4,3.1,3.2,5.6,3.3c1,0,1.9-0.1,2.9-0.3c1-0.1,2.1-0.3,3.1-0.5
			c0.7-0.1,1.4,0,2.1,0.5c0.3,0.3,0.8,0.5,1.1,0.7c0.9,0.5,1.9,0.7,3,0.6c3-0.2,2.2-0.3,4.3,1.4c0.4,0.4,0.8,0.8,1.3,1.1
			c1.6,1.1,2.2,2.6,2.3,4.6c-0.3,0-0.6,0-0.8-0.1c-0.6-0.1-1.2-0.3-1.9-0.3c-1.3-0.1-2.2,0.3-2.7,1.5c-0.5,1.3-0.8,2.6-1.2,3.9
			c-0.1,0.2-0.1,0.4-0.3,0.6c-0.1-0.4-0.2-0.8-0.3-1.2c-0.2-1-0.4-2-0.6-3c-0.3-1-0.8-1.9-1.6-2.5c-0.9-0.6-1.8-0.7-2.8-0.3
			c-0.4,0.2-0.8,0.4-1.3,0.6c-0.9,0.3-1.9,0.5-2.7-0.3c-0.7-0.6-1.6-0.8-2.5-0.8c-0.9,0-1.6,0.3-2.1,1.1c-0.4,0.6-0.6,1.2-0.9,1.8
			c-0.1,0.3-0.2,0.6-0.3,0.9C223.8,240.1,223.8,240.1,223.7,240.1z"/>
		<path class="st13" d="M244.7,289.5c-1.1,0.2-2.2-0.1-3.3-0.2c-0.6-0.1-1.2-0.2-1.7-0.4c-1.8-0.5-3.5-0.6-5.3-0.1
			c-0.4,0.1-0.8,0.2-1.2,0.3c-1.4,0.4-2.8,0.3-4.3-0.1c-1.5-0.5-3.2-0.5-4.8-0.4c-2.9,0.3-5.8,0.5-8.7,0.6c-1.8,0-3.5-0.1-5.2-0.6
			c-1.5-0.4-2.9-0.3-4.4,0.2c-0.3,0.1-0.6,0.2-1,0.3c0.2-16.5-0.1-33-0.5-49.5c0.6,0,1.2,0.2,1.7,0.1c0.7-0.1,1.5-0.2,2.2-0.5
			c1.8-0.9,3.6-0.9,5.5-0.5c1,0.2,1.9,0.2,2.9,0.3c1.3,0.1,2.4-0.1,3.7-0.8c0.6,1.2,1.1,2.4,1.7,3.6c-0.3,0-0.4,0.1-0.6,0.1
			c-3.2,0.1-6.4,0.2-9.6,0.3c-0.7,0-1.4,0.1-2.1,0.2c-1.2,0-1.8,0.6-2,1.9c-0.1,0.8-0.2,1.6-0.2,2.5c-0.1,3.3-0.2,6.6-0.2,9.9
			c0.1,4.9,0.3,9.8,0.4,14.7c0,1.3,0.1,2.6,0.1,4c0,3,0.1,6.1,0.1,9.1c0,0.3,0,0.6,0.1,0.8c0.1,0.8,0.4,1.2,1.3,1.3
			c1.6,0.2,3.1,0.3,4.7,0.4c4.3,0.1,8.6,0.2,12.9,0.2c3.7,0,7.4,0,11.2-0.1c0.8,0,1.6-0.2,2.4-0.2c0.9,0,1.2-0.5,1.3-1.4
			c0.1-0.9,0.1-1.8,0.1-2.6c0-2.2,0.1-4.4,0.1-6.6c0.1-5,0.1-9.9,0.1-14.9c0-3.7-0.1-7.4-0.2-11.2c0-1.3-0.1-2.5-0.2-3.8
			c0-2,0.5-3.8,1.2-5.7c1,0.2,2,0.3,3.1,0.5C245.1,257.1,245.1,273.3,244.7,289.5z"/>
	</g>
	<path class="st13" d="M236.3,241.8c-3.6,0.1-6.9,0.1-10.3,0.2c0.1-1.1,0.4-2.1,0.8-3c0.3-0.6,0.5-0.7,1-0.4
		c0.3,0.1,0.6,0.3,0.9,0.6c0.6,0.6,1.3,0.8,2.1,0.9c1.2,0.1,2.4-0.1,3.5-0.7c0.7-0.4,1-0.3,1.3,0.4
		C235.9,240.3,236,241.1,236.3,241.8z"/>
</g>
</svg>
